Genre:Adventure
Language:English
IMDb:http://www.imdb.com/title/tt1694508/
Source:DVDR-KART3LDVD

General
Complete name :Moby.Dick.2010.DvDRip.H264.Feel-Free
Format : MPEG-4
Format profile : Base Media / Version 2
Codec ID : mp42
File size : 927 MiB
Duration : 1h 27mn
Overall bit rate : 1 482 Kbps 
Video #1
Codec ID : avc1
Codec ID/Info : Advanced Video Coding
Duration : 1h 27mn
Bit rate mode : Variable
Bit rate : 1 001 Kbps
Width : 720 pixels
Height : 384 pixels
Display aspect ratio : 1.875
Frame rate mode : Constant
Frame rate : 23.976 fps
Resolution : 24 bits
Colorimetry : 4:2:0
Scan type : Progressive
Bits/(Pixel*Frame) : 0.151
Stream size : 626 MiB (68%)
Audio #2
ID : 2
Format : AAC
Format/Info : Advanced Audio Codec
Format version : Version 4
Format profile : LC
Format settings, SBR : No
Codec ID : 40
Duration : 1h 27mn
Bit rate mode : Constant
Bit rate : 477 Kbps
Nominal bit rate : 480 Kbps
Channel(s) : 6 channels
Channel positions : Front: L C R, Rear: L R, LFE
Sampling rate : 48.0 KHz
Resolution : 16 bits
Stream size : 298 MiB (32%)

Plot:
That infamous whale is bigger, badder and a whole lot stronger in this sci-fi
reimagining of Herman Melville's classic tale of the battle between man, sea and sea
creature starring "Xena" alum Ren e O'Connor as the (traditionally male) narrator. But the
boat -- now a high-tech submarine -- is also bigger, and Capt. Ahab(Barry Bostwick) is as
determined as ever to settle the score and take down the mighty sea mammal that maimed him.